<?xml version="1.0" standalone="no"?>
<!DOCTYPE svg PUBLIC "-//W3C//DTD SVG 20010904//EN"
 "http://www.w3.org/TR/2001/REC-SVG-20010904/DTD/svg10.dtd">
<svg version="1.0" xmlns="http://www.w3.org/2000/svg"
 width="128.000000pt" height="128.000000pt" viewBox="0 0 128.000000 128.000000"
 preserveAspectRatio="xMidYMid meet">
<metadata>
Created by potrace 1.11, written by Peter Selinger 2001-2013
</metadata>
<g transform="translate(0.000000,128.000000) scale(0.100000,-0.100000)"
fill="#000000" stroke="none">
<path d="M590 1206 c-11 -14 -116 -218 -116 -226 0 -3 -18 -41 -39 -85 -22
-44 -40 -82 -40 -85 -1 -7 -36 -81 -103 -220 -31 -63 -57 -117 -58 -120 -1 -3
-5 -15 -9 -27 -4 -13 -11 -23 -16 -23 -5 0 -8 -3 -7 -7 2 -9 -10 -37 -67 -156
-41 -87 -48 -116 -36 -136 12 -19 52 -21 70 -4 18 18 51 83 51 100 0 7 5 13
10 13 6 0 10 4 10 9 0 5 10 31 22 58 12 26 22 50 23 53 0 3 12 25 25 50 13 25
25 50 26 56 1 6 12 31 25 55 22 40 27 44 62 44 20 0 37 -2 37 -5 0 -3 90 -6
200 -7 110 -1 204 -4 208 -7 5 -3 21 -32 36 -63 15 -32 38 -79 51 -104 14 -26
25 -54 25 -62 0 -8 4 -17 8 -19 5 -1 26 -40 47 -86 41 -88 51 -100 85 -107 16
-3 24 1 27 15 3 11 9 20 14 20 13 0 3 30 -35 108 -20 40 -36 77 -36 82 0 6 -4
10 -10 10 -5 0 -10 6 -10 13 0 7 -21 55 -47 107 -25 52 -48 101 -49 108 -1 8
-10 22 -20 33 -9 10 -14 19 -10 19 3 0 -1 11 -10 25 -9 14 -12 25 -8 25 5 0 4
4 -1 8 -6 4 -28 45 -50 92 -21 47 -42 86 -47 88 -4 2 -8 10 -8 18 0 8 -14 43
-32 77 -18 34 -33 64 -33 67 -1 3 -10 23 -20 45 -10 22 -18 43 -17 48 1 4 -2
7 -7 7 -5 0 -14 15 -21 34 -18 56 -75 91 -100 62z m122 -331 c32 -65 58 -125
58 -132 0 -7 4 -13 8 -13 4 0 14 -17 22 -37 8 -21 16 -41 18 -44 2 -4 -9 -9
-23 -11 -14 -3 -25 -1 -25 3 0 5 -11 4 -24 -1 -13 -5 -26 -6 -30 -3 -3 3 -66
6 -140 7 -75 2 -138 4 -140 7 -3 2 6 25 18 51 13 26 21 50 18 53 -3 3 0 5 6 5
7 0 11 3 10 8 -1 4 16 43 37 87 22 44 40 82 40 85 1 3 14 31 29 64 l28 58 16
-33 c9 -19 42 -88 74 -154z"/>
</g>
</svg>
